<svg width="193" height="318" viewBox="0 0 193 318" fill="none" xmlns="http://www.w3.org/2000/svg">
<path d="M2 45.7184L84.244 78.9386M2 45.7184L106.039 2.60559C106.977 2.21652 108.029 2.19943 108.98 2.55777L191 33.4625M2 45.7184V266.571C2 268.014 2.77689 269.345 4.03312 270.054L84.244 315.35M84.244 78.9386L191 33.4625M84.244 78.9386V315.35M191 33.4625V266.284C191 267.876 190.056 269.317 188.596 269.952L84.244 315.35M87.7918 110.224L186.807 66.3601M87.7918 142.154L186.807 98.2901M87.7918 175.051L186.807 131.188M88.7594 206.014L187.775 162.15M87.7918 237.299L186.807 193.435M87.7918 271.809L186.807 227.945M88.7594 306.319L186.807 263.101M186.807 35.2485V270.73M88.7594 77.9418V313.385" stroke="black" stroke-width="3"/>
<path d="M147.234 65.2034L172.776 54.0532C174.428 53.3323 176.277 54.5424 176.277 56.3444V58.5813C176.277 59.5752 175.688 60.4748 174.777 60.8725L149.234 72.0227C147.583 72.7436 145.734 71.5335 145.734 69.7315V67.4946C145.734 66.5006 146.323 65.6011 147.234 65.2034Z" stroke="black" stroke-width="3"/>
<path d="M147.234 95.1983L172.776 84.0481C174.428 83.3271 176.277 84.5373 176.277 86.3393V88.5761C176.277 89.5701 175.688 90.4697 174.777 90.8673L149.234 102.018C147.583 102.738 145.734 101.528 145.734 99.7263V97.4895C145.734 96.4955 146.323 95.596 147.234 95.1983Z" stroke="black" stroke-width="3"/>
<path d="M147.234 126.806L172.776 115.656C174.428 114.935 176.277 116.145 176.277 117.947V120.184C176.277 121.178 175.688 122.077 174.777 122.475L149.234 133.625C147.583 134.346 145.734 133.136 145.734 131.334V129.097C145.734 128.103 146.323 127.203 147.234 126.806Z" stroke="black" stroke-width="3"/>
<path d="M147.234 160.349L172.776 149.198C174.428 148.477 176.277 149.688 176.277 151.49V153.726C176.277 154.72 175.688 155.62 174.777 156.018L149.234 167.168C147.583 167.889 145.734 166.679 145.734 164.877V162.64C145.734 161.646 146.323 160.746 147.234 160.349Z" stroke="black" stroke-width="3"/>
<path d="M147.234 191.956L172.776 180.806C174.428 180.085 176.277 181.295 176.277 183.097V185.334C176.277 186.328 175.688 187.227 174.777 187.625L149.234 198.775C147.583 199.496 145.734 198.286 145.734 196.484V194.247C145.734 193.253 146.323 192.354 147.234 191.956Z" stroke="black" stroke-width="3"/>
<path d="M147.234 223.564L172.776 212.413C174.428 211.692 176.277 212.903 176.277 214.705V216.941C176.277 217.935 175.688 218.835 174.777 219.233L149.234 230.383C147.583 231.104 145.734 229.894 145.734 228.092V225.855C145.734 224.861 146.323 223.961 147.234 223.564Z" stroke="black" stroke-width="3"/>
<path d="M147.234 259.686L172.776 248.536C174.428 247.815 176.277 249.025 176.277 250.827V253.064C176.277 254.058 175.688 254.958 174.777 255.355L149.234 266.506C147.583 267.227 145.734 266.016 145.734 264.214V261.978C145.734 260.984 146.323 260.084 147.234 259.686Z" stroke="black" stroke-width="3"/>
<path d="M99.4998 87.7809L101.176 87.0494C102.827 86.3285 104.676 87.5386 104.676 89.3406V91.5775C104.676 92.5714 104.087 93.471 103.176 93.8687L101.5 94.6002C99.8487 95.3211 98 94.111 98 92.309V90.0721C98 89.0782 98.5888 88.1786 99.4998 87.7809ZM109.614 83.0994L114.129 81.1283C114.843 80.8168 115.642 81.3397 115.642 82.1183V87.4535C115.642 87.8829 115.387 88.2716 114.994 88.4435L110.478 90.4146C109.765 90.7261 108.966 90.2032 108.966 89.4246V84.0894C108.966 83.6599 109.22 83.2712 109.614 83.0994ZM120.58 77.7641L125.095 75.7929C125.809 75.4814 126.608 76.0043 126.608 76.7829V82.1181C126.608 82.5476 126.353 82.9363 125.959 83.1081L121.444 85.0792C120.731 85.3907 119.932 84.8679 119.932 84.0892V78.7541C119.932 78.3246 120.186 77.9359 120.58 77.7641ZM131.546 72.4287L136.061 70.4576C136.775 70.1461 137.573 70.6689 137.573 71.4476V76.7828C137.573 77.2122 137.319 77.6009 136.925 77.7727L132.41 79.7439C131.696 80.0554 130.898 79.5325 130.898 78.7539V73.4187C130.898 72.9892 131.152 72.6005 131.546 72.4287Z" stroke="black" stroke-width="3"/>
<path d="M99.4998 118.174L101.176 117.443C102.827 116.722 104.676 117.932 104.676 119.734V121.971C104.676 122.965 104.087 123.864 103.176 124.262L101.5 124.993C99.8487 125.714 98 124.504 98 122.702V120.465C98 119.471 98.5888 118.572 99.4998 118.174ZM109.614 113.493L114.129 111.521C114.843 111.21 115.642 111.733 115.642 112.511V117.847C115.642 118.276 115.387 118.665 114.994 118.837L110.478 120.808C109.765 121.119 108.966 120.596 108.966 119.818V114.483C108.966 114.053 109.22 113.664 109.614 113.493ZM120.58 108.157L125.095 106.186C125.809 105.875 126.608 106.398 126.608 107.176V112.511C126.608 112.941 126.353 113.329 125.959 113.501L121.444 115.472C120.731 115.784 119.932 115.261 119.932 114.482V109.147C119.932 108.718 120.186 108.329 120.58 108.157ZM131.546 102.822L136.061 100.851C136.775 100.539 137.573 101.062 137.573 101.841V107.176C137.573 107.605 137.319 107.994 136.925 108.166L132.41 110.137C131.696 110.449 130.898 109.926 130.898 109.147V103.812C130.898 103.382 131.152 102.994 131.546 102.822Z" stroke="black" stroke-width="3"/>
<path d="M99.4998 149.782L101.176 149.05C102.827 148.329 104.676 149.539 104.676 151.341V153.578C104.676 154.572 104.087 155.472 103.176 155.869L101.5 156.601C99.8487 157.322 98 156.112 98 154.31V152.073C98 151.079 98.5888 150.179 99.4998 149.782ZM109.614 145.1L114.129 143.129C114.843 142.818 115.642 143.34 115.642 144.119V149.454C115.642 149.884 115.387 150.272 114.994 150.444L110.478 152.415C109.765 152.727 108.966 152.204 108.966 151.425V146.09C108.966 145.661 109.22 145.272 109.614 145.1ZM120.58 139.765L125.095 137.794C125.809 137.482 126.608 138.005 126.608 138.784V144.119C126.608 144.548 126.353 144.937 125.959 145.109L121.444 147.08C120.731 147.391 119.932 146.869 119.932 146.09V140.755C119.932 140.325 120.186 139.937 120.58 139.765ZM131.546 134.429L136.061 132.458C136.775 132.147 137.573 132.67 137.573 133.448V138.783C137.573 139.213 137.319 139.602 136.925 139.773L132.41 141.745C131.696 142.056 130.898 141.533 130.898 140.755V135.419C130.898 134.99 131.152 134.601 131.546 134.429Z" stroke="black" stroke-width="3"/>
<path d="M99.4998 181.389L101.176 180.658C102.827 179.937 104.676 181.147 104.676 182.949V185.186C104.676 186.18 104.087 187.079 103.176 187.477L101.5 188.208C99.8487 188.929 98 187.719 98 185.917V183.68C98 182.686 98.5888 181.787 99.4998 181.389ZM109.614 176.708L114.129 174.736C114.843 174.425 115.642 174.948 115.642 175.726V181.062C115.642 181.491 115.387 181.88 114.994 182.052L110.478 184.023C109.765 184.334 108.966 183.811 108.966 183.033V177.698C108.966 177.268 109.22 176.879 109.614 176.708ZM120.58 171.372L125.095 169.401C125.809 169.09 126.608 169.612 126.608 170.391V175.726C126.608 176.156 126.353 176.544 125.959 176.716L121.444 178.687C120.731 178.999 119.932 178.476 119.932 177.697V172.362C119.932 171.933 120.186 171.544 120.58 171.372ZM131.546 166.037L136.061 164.066C136.775 163.754 137.573 164.277 137.573 165.056V170.391C137.573 170.82 137.319 171.209 136.925 171.381L132.41 173.352C131.696 173.664 130.898 173.141 130.898 172.362V167.027C130.898 166.597 131.152 166.209 131.546 166.037Z" stroke="black" stroke-width="3"/>
<path d="M99.4998 212.997L101.176 212.265C102.827 211.544 104.676 212.754 104.676 214.556V216.793C104.676 217.787 104.087 218.687 103.176 219.084L101.5 219.816C99.8487 220.537 98 219.327 98 217.525V215.288C98 214.294 98.5888 213.394 99.4998 212.997ZM109.614 208.315L114.129 206.344C114.843 206.032 115.642 206.555 115.642 207.334V212.669C115.642 213.099 115.387 213.487 114.994 213.659L110.478 215.63C109.765 215.942 108.966 215.419 108.966 214.64V209.305C108.966 208.876 109.22 208.487 109.614 208.315ZM120.58 202.98L125.095 201.009C125.809 200.697 126.608 201.22 126.608 201.999V207.334C126.608 207.763 126.353 208.152 125.959 208.324L121.444 210.295C120.731 210.606 119.932 210.084 119.932 209.305V203.97C119.932 203.54 120.186 203.152 120.58 202.98ZM131.546 197.644L136.061 195.673C136.775 195.362 137.573 195.885 137.573 196.663V201.998C137.573 202.428 137.319 202.817 136.925 202.988L132.41 204.96C131.696 205.271 130.898 204.748 130.898 203.97V198.634C130.898 198.205 131.152 197.816 131.546 197.644Z" stroke="black" stroke-width="3"/>
<path d="M99.4998 246.539L101.176 245.808C102.827 245.087 104.676 246.297 104.676 248.099V250.336C104.676 251.33 104.087 252.229 103.176 252.627L101.5 253.358C99.8487 254.079 98 252.869 98 251.067V248.83C98 247.836 98.5888 246.937 99.4998 246.539ZM109.614 241.858L114.129 239.887C114.843 239.575 115.642 240.098 115.642 240.877V246.212C115.642 246.641 115.387 247.03 114.994 247.202L110.478 249.173C109.765 249.484 108.966 248.962 108.966 248.183V242.848C108.966 242.418 109.22 242.03 109.614 241.858ZM120.58 236.522L125.095 234.551C125.809 234.24 126.608 234.763 126.608 235.541V240.876C126.608 241.306 126.353 241.695 125.959 241.866L121.444 243.838C120.731 244.149 119.932 243.626 119.932 242.848V237.512C119.932 237.083 120.186 236.694 120.58 236.522ZM131.546 231.187L136.061 229.216C136.775 228.904 137.573 229.427 137.573 230.206V235.541C137.573 235.971 137.319 236.359 136.925 236.531L132.41 238.502C131.696 238.814 130.898 238.291 130.898 237.512V232.177C130.898 231.747 131.152 231.359 131.546 231.187Z" stroke="black" stroke-width="3"/>
<path d="M99.4998 282.017L101.176 281.286C102.827 280.565 104.676 281.775 104.676 283.577V285.814C104.676 286.808 104.087 287.707 103.176 288.105L101.5 288.836C99.8487 289.557 98 288.347 98 286.545V284.308C98 283.314 98.5888 282.415 99.4998 282.017ZM109.614 277.336L114.129 275.364C114.843 275.053 115.642 275.576 115.642 276.354V281.69C115.642 282.119 115.387 282.508 114.994 282.68L110.478 284.651C109.765 284.962 108.966 284.439 108.966 283.661V278.326C108.966 277.896 109.22 277.507 109.614 277.336ZM120.58 272L125.095 270.029C125.809 269.718 126.608 270.241 126.608 271.019V276.354C126.608 276.784 126.353 277.172 125.959 277.344L121.444 279.315C120.731 279.627 119.932 279.104 119.932 278.325V272.99C119.932 272.561 120.186 272.172 120.58 272ZM131.546 266.665L136.061 264.694C136.775 264.382 137.573 264.905 137.573 265.684V271.019C137.573 271.448 137.319 271.837 136.925 272.009L132.41 273.98C131.696 274.292 130.898 273.769 130.898 272.99V267.655C130.898 267.225 131.152 266.837 131.546 266.665Z" stroke="black" stroke-width="3"/>
</svg>
