<svg width="193" height="318" viewBox="0 0 193 318" fill="none" xmlns="http://www.w3.org/2000/svg">
<path d="M2 45.7184L84.244 78.9386M2 45.7184L106.039 2.60559C106.977 2.21652 108.029 2.19943 108.98 2.55777L191 33.4625M2 45.7184V266.571C2 268.014 2.77689 269.345 4.03312 270.054L84.244 315.35M84.244 78.9386L191 33.4625M84.244 78.9386V315.35M191 33.4625V266.284C191 267.876 190.056 269.317 188.596 269.952L84.244 315.35M87.7918 110.224L186.807 66.3601M87.7918 142.154L186.807 98.2901M87.7918 175.051L186.807 131.188M88.7594 206.014L187.775 162.15M87.7918 237.299L186.807 193.435M87.7918 271.809L186.807 227.945M88.7594 306.319L186.807 263.101M186.807 35.2485V270.73M88.7594 77.9418V313.385" stroke="black" stroke-width="3"/>
<path d="M172.776 54.0531C174.427 53.3322 176.277 54.5423 176.277 56.3441V58.5814C176.277 59.5132 175.759 60.3622 174.944 60.7924L174.777 60.8724L149.234 72.0228C147.583 72.7435 145.734 71.5335 145.734 69.7318V67.4945L145.741 67.3099C145.804 66.4517 146.306 65.6851 147.067 65.2836L147.234 65.2035L172.776 54.0531Z" stroke="black" stroke-width="3"/>
<path d="M172.776 84.048C174.427 83.3271 176.277 84.5371 176.277 86.339V88.5763C176.277 89.5081 175.759 90.3571 174.944 90.7872L174.777 90.8673L149.234 102.018C147.583 102.738 145.734 101.528 145.734 99.7267V97.4894L145.741 97.3048C145.804 96.4465 146.306 95.6799 147.067 95.2784L147.234 95.1984L172.776 84.048Z" stroke="black" stroke-width="3"/>
<path d="M172.776 115.656C174.427 114.935 176.277 116.145 176.277 117.947V120.184C176.277 121.116 175.759 121.965 174.944 122.395L174.777 122.475L149.234 133.625C147.583 134.346 145.734 133.136 145.734 131.334V129.097L145.741 128.912C145.804 128.054 146.306 127.287 147.067 126.886L147.234 126.806L172.776 115.656Z" stroke="black" stroke-width="3"/>
<path d="M172.776 149.198C174.427 148.477 176.277 149.687 176.277 151.489V153.727C176.277 154.658 175.759 155.507 174.944 155.938L174.777 156.018L149.234 167.168C147.583 167.889 145.734 166.679 145.734 164.877V162.64L145.741 162.455C145.804 161.597 146.306 160.83 147.067 160.429L147.234 160.349L172.776 149.198Z" stroke="black" stroke-width="3"/>
<path d="M172.776 180.806C174.427 180.085 176.277 181.295 176.277 183.097V185.334C176.277 186.266 175.759 187.115 174.944 187.545L174.777 187.625L149.234 198.775C147.583 199.496 145.734 198.286 145.734 196.484V194.247L145.741 194.062C145.804 193.204 146.306 192.438 147.067 192.036L147.234 191.956L172.776 180.806Z" stroke="black" stroke-width="3"/>
<path d="M172.776 212.413C174.427 211.692 176.277 212.902 176.277 214.704V216.942C176.277 217.873 175.759 218.722 174.944 219.152L174.777 219.233L149.234 230.383C147.583 231.104 145.734 229.894 145.734 228.092V225.855L145.741 225.67C145.804 224.812 146.306 224.045 147.067 223.644L147.234 223.564L172.776 212.413Z" stroke="black" stroke-width="3"/>
<path d="M172.776 248.536C174.427 247.815 176.277 249.025 176.277 250.827V253.064C176.277 253.996 175.759 254.845 174.944 255.275L174.777 255.355L149.234 266.506C147.583 267.227 145.734 266.017 145.734 264.215V261.978L145.741 261.793C145.804 260.935 146.306 260.168 147.067 259.767L147.234 259.687L172.776 248.536Z" stroke="black" stroke-width="3"/>
<path d="M101.176 87.0491C102.827 86.3284 104.676 87.5392 104.676 89.3411V91.5774C104.676 92.5093 104.158 93.3582 103.343 93.7883L103.176 93.8684L101.5 94.5999C99.8485 95.3208 98 94.1108 98 92.3088V90.0725C98 89.1406 98.5177 88.2917 99.333 87.8616L99.5 87.7805L101.176 87.0491ZM114.129 81.1282C114.842 80.8167 115.642 81.3398 115.642 82.1184V87.4534C115.642 87.8291 115.447 88.174 115.135 88.3694L114.993 88.4436L110.479 90.4143C109.765 90.7257 108.966 90.2034 108.966 89.425V84.0891C108.966 83.7136 109.161 83.3695 109.473 83.1741L109.614 83.0999L114.129 81.1282ZM125.095 75.7932C125.808 75.4818 126.607 76.0041 126.607 76.7825V82.1184C126.607 82.4939 126.413 82.8381 126.101 83.0334L125.959 83.1077L121.444 85.0793C120.731 85.3909 119.932 84.8677 119.932 84.0891V78.7542C119.932 78.3785 120.126 78.0335 120.438 77.8381L120.58 77.7639L125.095 75.7932ZM136.061 70.4573C136.774 70.1458 137.573 70.6689 137.573 71.4475V76.7825C137.573 77.1582 137.379 77.5031 137.066 77.6985L136.926 77.7727L132.41 79.7434C131.697 80.0549 130.898 79.5326 130.897 78.7542V73.4182C130.898 73.0425 131.093 72.6984 131.405 72.5032L131.546 72.429L136.061 70.4573Z" stroke="black" stroke-width="3"/>
<path d="M101.176 117.442C102.827 116.722 104.676 117.932 104.676 119.734V121.971C104.676 122.902 104.158 123.751 103.343 124.182L103.176 124.262L101.5 124.993C99.8485 125.714 98 124.504 98 122.702V120.466C98 119.534 98.5177 118.685 99.333 118.255L99.5 118.174L101.176 117.442ZM114.129 111.521C114.842 111.21 115.642 111.733 115.642 112.512V117.847C115.642 118.222 115.447 118.567 115.135 118.763L114.993 118.837L110.479 120.807C109.765 121.119 108.966 120.597 108.966 119.818V114.482C108.966 114.107 109.161 113.763 109.473 113.567L109.614 113.493L114.129 111.521ZM125.095 106.186C125.808 105.875 126.607 106.397 126.607 107.176V112.512C126.607 112.887 126.413 113.231 126.101 113.427L125.959 113.501L121.444 115.473C120.731 115.784 119.932 115.261 119.932 114.482V109.147C119.932 108.772 120.126 108.427 120.438 108.231L120.58 108.157L125.095 106.186ZM136.061 100.85C136.774 100.539 137.573 101.062 137.573 101.841V107.176C137.573 107.551 137.379 107.896 137.066 108.092L136.926 108.166L132.41 110.137C131.697 110.448 130.898 109.926 130.897 109.147V103.811C130.898 103.436 131.093 103.092 131.405 102.896L131.546 102.822L136.061 100.85Z" stroke="black" stroke-width="3"/>
<path d="M101.176 149.05C102.827 148.329 104.676 149.54 104.676 151.342V153.578C104.676 154.51 104.158 155.359 103.343 155.789L103.176 155.869L101.5 156.601C99.8485 157.321 98 156.112 98 154.31V152.073C98 151.141 98.5177 150.292 99.333 149.862L99.5 149.781L101.176 149.05ZM114.129 143.129C114.842 142.817 115.642 143.341 115.642 144.119V149.454C115.642 149.83 115.447 150.175 115.135 150.37L114.993 150.444L110.479 152.415C109.765 152.726 108.966 152.204 108.966 151.426V146.09C108.966 145.714 109.161 145.37 109.473 145.175L109.614 145.101L114.129 143.129ZM125.095 137.794C125.808 137.482 126.607 138.005 126.607 138.783V144.119C126.607 144.495 126.413 144.839 126.101 145.034L125.959 145.108L121.444 147.08C120.731 147.392 119.932 146.868 119.932 146.09V140.755C119.932 140.379 120.126 140.034 120.438 139.839L120.58 139.765L125.095 137.794ZM136.061 132.458C136.774 132.147 137.573 132.67 137.573 133.448V138.783C137.573 139.159 137.379 139.504 137.066 139.699L136.926 139.773L132.41 141.744C131.697 142.056 130.898 141.533 130.897 140.755V135.419C130.898 135.043 131.093 134.699 131.405 134.504L131.546 134.43L136.061 132.458Z" stroke="black" stroke-width="3"/>
<path d="M101.176 180.657C102.827 179.937 104.676 181.147 104.676 182.949V185.186C104.676 186.117 104.158 186.966 103.343 187.396L103.176 187.477L101.5 188.208C99.8485 188.929 98 187.719 98 185.917V183.681C98 182.749 98.5177 181.9 99.333 181.47L99.5 181.389L101.176 180.657ZM114.129 174.736C114.842 174.425 115.642 174.948 115.642 175.727V181.062C115.642 181.437 115.447 181.782 115.135 181.978L114.993 182.052L110.479 184.022C109.765 184.334 108.966 183.812 108.966 183.033V177.697C108.966 177.322 109.161 176.978 109.473 176.782L109.614 176.708L114.129 174.736ZM125.095 169.401C125.808 169.09 126.607 169.612 126.607 170.391V175.727C126.607 176.102 126.413 176.446 126.101 176.642L125.959 176.716L121.444 178.688C120.731 178.999 119.932 178.476 119.932 177.697V172.362C119.932 171.987 120.126 171.642 120.438 171.446L120.58 171.372L125.095 169.401ZM136.061 164.065C136.774 163.754 137.573 164.277 137.573 165.056V170.391C137.573 170.766 137.379 171.111 137.066 171.307L136.926 171.381L132.41 173.352C131.697 173.663 130.898 173.141 130.897 172.362V167.026C130.898 166.651 131.093 166.307 131.405 166.111L131.546 166.037L136.061 164.065Z" stroke="black" stroke-width="3"/>
<path d="M101.176 212.265C102.827 211.544 104.676 212.755 104.676 214.557V216.793C104.676 217.725 104.158 218.574 103.343 219.004L103.176 219.084L101.5 219.816C99.8485 220.536 98 219.327 98 217.525V215.288C98 214.356 98.5177 213.507 99.333 213.077L99.5 212.996L101.176 212.265ZM114.129 206.344C114.842 206.032 115.642 206.555 115.642 207.334V212.669C115.642 213.045 115.447 213.39 115.135 213.585L114.993 213.659L110.479 215.63C109.765 215.941 108.966 215.419 108.966 214.641V209.305C108.966 208.929 109.161 208.585 109.473 208.39L109.614 208.316L114.129 206.344ZM125.095 201.009C125.808 200.697 126.607 201.22 126.607 201.998V207.334C126.607 207.71 126.413 208.054 126.101 208.249L125.959 208.323L121.444 210.295C120.731 210.607 119.932 210.083 119.932 209.305V203.97C119.932 203.594 120.126 203.249 120.438 203.054L120.58 202.98L125.095 201.009ZM136.061 195.673C136.774 195.361 137.573 195.885 137.573 196.663V201.998C137.573 202.374 137.379 202.719 137.066 202.914L136.926 202.988L132.41 204.959C131.697 205.271 130.898 204.748 130.897 203.97V198.634C130.898 198.258 131.093 197.914 131.405 197.719L131.546 197.645L136.061 195.673Z" stroke="black" stroke-width="3"/>
<path d="M101.176 245.807C102.827 245.087 104.676 246.297 104.676 248.099V250.336C104.676 251.268 104.158 252.117 103.343 252.547L103.176 252.627L101.5 253.358C99.8485 254.079 98 252.869 98 251.067V248.831C98 247.899 98.5177 247.05 99.333 246.62L99.5 246.539L101.176 245.807ZM114.129 239.886C114.842 239.575 115.642 240.098 115.642 240.877V246.212C115.642 246.587 115.447 246.932 115.135 247.128L114.993 247.202L110.479 249.173C109.765 249.484 108.966 248.962 108.966 248.183V242.847C108.966 242.472 109.161 242.128 109.473 241.932L109.614 241.858L114.129 239.886ZM125.095 234.552C125.808 234.24 126.607 234.762 126.607 235.541V240.877C126.607 241.252 126.413 241.596 126.101 241.792L125.959 241.866L121.444 243.838C120.731 244.149 119.932 243.626 119.932 242.847V237.512C119.932 237.137 120.126 236.792 120.438 236.596L120.58 236.522L125.095 234.552ZM136.061 229.216C136.774 228.904 137.573 229.427 137.573 230.206V235.541C137.573 235.917 137.379 236.261 137.066 236.457L136.926 236.531L132.41 238.502C131.697 238.813 130.898 238.291 130.897 237.512V232.177C130.898 231.801 131.093 231.457 131.405 231.261L131.546 231.187L136.061 229.216Z" stroke="black" stroke-width="3"/>
<path d="M101.176 281.285C102.827 280.565 104.676 281.775 104.676 283.577V285.814C104.676 286.746 104.158 287.594 103.343 288.025L103.176 288.105L101.5 288.836C99.8485 289.557 98 288.347 98 286.545V284.309C98 283.377 98.5177 282.528 99.333 282.098L99.5 282.017L101.176 281.285ZM114.129 275.364C114.842 275.053 115.642 275.576 115.642 276.355V281.69C115.642 282.065 115.447 282.41 115.135 282.606L114.993 282.68L110.479 284.651C109.765 284.962 108.966 284.44 108.966 283.661V278.325C108.966 277.95 109.161 277.606 109.473 277.41L109.614 277.336L114.129 275.364ZM125.095 270.029C125.808 269.718 126.607 270.24 126.607 271.019V276.355C126.607 276.73 126.413 277.074 126.101 277.27L125.959 277.344L121.444 279.316C120.731 279.627 119.932 279.104 119.932 278.325V272.99C119.932 272.615 120.126 272.27 120.438 272.074L120.58 272L125.095 270.029ZM136.061 264.693C136.774 264.382 137.573 264.905 137.573 265.684V271.019C137.573 271.394 137.379 271.739 137.066 271.935L136.926 272.009L132.41 273.98C131.697 274.291 130.898 273.769 130.897 272.99V267.654C130.898 267.279 131.093 266.935 131.405 266.739L131.546 266.665L136.061 264.693Z" stroke="black" stroke-width="3"/>
</svg>
