<svg width="307" height="319" viewBox="0 0 307 319" fill="none" xmlns="http://www.w3.org/2000/svg">
<path d="M41.5146 50.5629L164.462 96.8678" stroke="black" stroke-width="4"/>
<path d="M77.9731 97.9321L197.727 136.786" stroke="black" stroke-width="4"/>
<path d="M116.827 145.834L231.791 177.768" stroke="black" stroke-width="4"/>
<path d="M158.874 197.461L268.515 219.815" stroke="black" stroke-width="4"/>
<path d="M135.642 58.4345L14.7359 6.34819C10.9089 4.69954 7.42621 9.27044 10.0314 12.5226L199.36 248.869C200.019 249.691 200.976 250.221 202.023 250.342L296.364 261.246C299.952 261.66 302.209 257.484 299.896 254.71L137.132 59.5462C136.729 59.0639 136.219 58.683 135.642 58.4345Z" stroke="black" stroke-width="4"/>
<path d="M134.054 60.8298L22.8034 12.4358C18.9756 10.7708 15.4763 15.3459 18.0856 18.6041L200.143 245.947C200.8 246.766 201.752 247.295 202.795 247.419L289.934 257.751C293.527 258.177 295.794 253.994 293.476 251.216L135.53 61.935C135.131 61.4568 134.625 61.0783 134.054 60.8298Z" stroke="black" stroke-width="4"/>
<path d="M41.7808 20.7573L232.323 253.346" stroke="black" stroke-width="4"/>
<path d="M74.2471 34.5956L258.934 256.54" stroke="black" stroke-width="4"/>
<path d="M105.649 47.9016L282.885 260.265" stroke="black" stroke-width="4"/>
<path d="M140.83 182.968L135.615 178.126C135.004 177.559 134.657 176.762 134.657 175.928C134.657 173.065 138.285 171.828 140.033 174.096L163.752 204.857C165.78 207.487 163.906 211.299 160.585 211.299H160.123C158.989 211.299 157.908 210.818 157.15 209.975L154.743 207.301C153.984 206.458 152.904 205.977 151.77 205.977H146.108C143.899 205.977 142.108 204.186 142.108 201.977V185.899C142.108 184.787 141.645 183.725 140.83 182.968Z" fill="black" stroke="black" stroke-width="4"/>
<path d="M162.724 316.417H138.79C136.581 316.417 134.79 314.626 134.79 312.417V301.662C134.79 299.453 136.581 297.662 138.79 297.662H142.304V206.588C142.304 204.379 144.095 202.588 146.304 202.588L149.274 202.588C150.437 202.588 151.542 203.094 152.302 203.973L158.238 210.846C158.865 211.573 159.21 212.501 159.21 213.461V297.662H162.724C164.934 297.662 166.724 299.453 166.724 301.662V312.417C166.724 314.626 164.934 316.417 162.724 316.417Z" fill="black"/>
<path d="M142.304 297.662H138.79C136.581 297.662 134.79 299.453 134.79 301.662V312.417C134.79 314.626 136.581 316.417 138.79 316.417H162.724C164.934 316.417 166.724 314.626 166.724 312.417V301.662C166.724 299.453 164.934 297.662 162.724 297.662H159.21M142.304 297.662V206.588C142.304 204.379 144.095 202.588 146.304 202.588L149.274 202.588C150.437 202.588 151.542 203.094 152.302 203.973L158.238 210.846C158.865 211.573 159.21 212.501 159.21 213.461V297.662M142.304 297.662H159.21" stroke="black" stroke-width="4"/>
<path d="M104.319 316.683L196.397 316.683" stroke="black" stroke-width="4"/>
</svg>
