<svg width="247" height="324" viewBox="0 0 247 324" fill="none" xmlns="http://www.w3.org/2000/svg">
<path d="M98.7998 310.989L121.757 315.609C121.98 315.654 122.212 315.621 122.414 315.516L170.875 290.401C171.724 289.96 171.53 288.693 170.587 288.528L150.547 285.014C150.323 284.975 150.092 285.013 149.892 285.123L142.778 289.039M98.7998 310.989L127.717 296.399M98.7998 310.989V316.675C98.7998 317.147 99.1301 317.555 99.592 317.653L121.756 322.362C121.98 322.41 122.213 322.379 122.416 322.276L173.502 296.399" stroke="black" stroke-width="3"/>
<path d="M240.435 4.95996C242.762 3.79643 245.5 5.4882 245.5 8.08984V188.485C245.5 189.728 244.842 190.872 243.782 191.498L243.565 191.616L122.829 251.984L6.56543 310.115C4.23839 311.279 1.50026 309.587 1.5 306.985V126.59C1.50014 125.347 2.15852 124.205 3.21777 123.578L3.43457 123.46L240.435 4.95996Z" stroke="black" stroke-width="3"/>
<path d="M232.002 16.3989C234.329 15.2372 237.066 16.9298 237.066 19.5308V185.644C237.066 186.888 236.407 188.031 235.346 188.657L235.129 188.775L140.742 235.898L123.432 244.54L16.2026 298.073C13.8757 299.234 11.1394 297.543 11.1392 294.942V128.829L11.1479 128.582C11.2289 127.435 11.8692 126.4 12.8589 125.816L13.0757 125.698L232.002 16.3989Z" stroke="black" stroke-width="3"/>
<path d="M127.717 301.597V250.645C127.717 249.888 128.145 249.195 128.823 248.856L140.486 243.025C141.816 242.36 143.381 243.327 143.381 244.813V295.766C143.381 296.523 142.953 297.216 142.275 297.555L130.612 303.386C129.282 304.051 127.717 303.084 127.717 301.597Z" stroke="black" stroke-width="3"/>
</svg>
