<svg width="423" height="201" viewBox="0 0 423 201" fill="none" xmlns="http://www.w3.org/2000/svg">
<path d="M247.013 74.2789L238 151.464L263.079 188.887C274.923 195.502 337.924 195.904 344.978 188.887L368.134 151.464M247.013 74.2789C279.929 66.4822 344.978 68.0415 359.084 74.2789M247.013 74.2789H251.715M368.134 151.464H391.217C425.701 149.905 433.538 99.2276 397.095 91.4311H364.179M368.134 151.464L364.641 98.4477M364.179 91.4311L359.084 74.2789M364.179 91.4311L364.641 98.4477M359.084 74.2789H355.95M251.715 74.2789V142.888L268.957 177.582C284.631 186.158 338.708 183.819 338.708 177.582L355.95 142.888V74.2789M251.715 74.2789C276.402 80.126 351.639 78.5667 355.95 74.2789M367.569 142.888H390.652C417.863 142.888 419.431 98.4477 391.217 98.4477H364.641" stroke="black" stroke-width="3"/>
<path d="M79.7116 55.8878C79.7116 55.8878 66.7959 56.8671 64.4476 55.8878C62.0993 54.9086 52.3146 36.7591 52.3146 36.7591C49.1835 32.4647 38.2727 32.8551 35.8764 36.7591C24.1348 55.8878 25.7004 91.803 12.3933 113.665L3 119.52L25.3583 23.4859M79.7116 55.8878C118.459 75.7972 164.016 64.4759 175.933 50.8127M79.7116 55.8878C78.5929 57.6856 77.6493 59.23 76.2203 61.3532M183.429 61.3532C203.626 90.1883 209.281 106.014 212 139.82C195.953 197.597 142.333 206.576 96.1498 194.084C61.2808 183.379 47.2266 154.589 47.2266 135.136C47.2266 103.8 63.3078 79.4819 73.4494 65.329M183.429 61.3532C186.56 95.7068 84.0169 108.199 73.4494 65.329M183.429 61.3532C183.429 61.3532 179.804 57.946 178.341 55.8878M175.933 50.8127V41.4437L162.294 30.5128M175.933 50.8127C175.933 50.8127 176.877 53.8297 178.341 55.8878M162.294 30.5128C162.294 30.5128 170.944 22.2178 172.47 13.7263C172.892 11.3771 173.762 9.76418 173.096 7.48014C170.024 -3.06011 107.109 0.0626353 90.279 30.5128M162.294 30.5128C121.409 43.1957 101.825 45.1003 93.7942 36.7591M162.294 30.5128C134.506 21.9243 121.199 16.0688 93.7942 36.7591M90.279 30.5128L57.0112 16.0688L28.0487 14.1168L25.3583 23.4859M90.279 30.5128C91.039 33.0037 92.1845 35.0872 93.7942 36.7591M73.4494 65.329C74.5738 63.76 75.4649 62.4757 76.2203 61.3532M93.7942 36.7591L96.1498 45.3473L52.3146 25.4378L25.3583 23.4859M76.2203 61.3532C105.953 82.4349 160.954 80.2867 178.341 55.8878" stroke="black" stroke-width="3"/>
</svg>
