<svg width="700" height="350" viewBox="0 0 700 350" fill="none" xmlns="http://www.w3.org/2000/svg">
<g clip-path="url(#clip0_1713_3279)">
<rect width="700" height="350" fill="white"/>
<path d="M87.3107 87.6904C82.072 144.442 54.4018 169.665 0 175.001C5.23864 118.249 32.9088 93.0267 87.3107 87.6904Z" fill="white" stroke="#A2A2A2" stroke-linecap="round"/>
<path d="M88.084 87.6904C93.3226 144.442 120.993 169.665 175.395 175.001C170.156 118.249 142.486 93.0267 88.084 87.6904Z" fill="white" stroke="#A2A2A2" stroke-linecap="round"/>
<path d="M88.0839 87.3105C93.3225 30.5586 120.993 5.33617 175.395 -0.0001297C170.156 56.7518 142.486 81.9743 88.0839 87.3105Z" fill="white" stroke="#A2A2A2" stroke-linecap="round"/>
<path d="M87.3105 87.3105C82.0719 30.5586 54.4017 5.33617 -0.000106812 -0.0001297C5.23853 56.7518 32.9087 81.9743 87.3105 87.3105Z" fill="white" stroke="#A2A2A2" stroke-linecap="round"/>
<path d="M437.311 87.6904C432.072 144.442 404.402 169.665 350 175.001C355.239 118.249 382.909 93.0267 437.311 87.6904Z" fill="white" stroke="#A2A2A2" stroke-linecap="round"/>
<path d="M438.084 87.6904C443.323 144.442 470.993 169.665 525.395 175.001C520.156 118.249 492.486 93.0267 438.084 87.6904Z" fill="white" stroke="#A2A2A2" stroke-linecap="round"/>
<path d="M438.084 87.3105C443.323 30.5586 470.993 5.33617 525.395 -0.0001297C520.156 56.7518 492.486 81.9743 438.084 87.3105Z" fill="white" stroke="#A2A2A2" stroke-linecap="round"/>
<path d="M437.311 87.3105C432.072 30.5586 404.402 5.33617 350 -0.0001297C355.239 56.7518 382.909 81.9743 437.311 87.3105Z" fill="white" stroke="#A2A2A2" stroke-linecap="round"/>
<path d="M262.311 87.6904C257.072 144.442 229.402 169.665 175 175.001C180.239 118.249 207.909 93.0267 262.311 87.6904Z" fill="white" stroke="#A2A2A2" stroke-linecap="round"/>
<path d="M263.084 87.6904C268.323 144.442 295.993 169.665 350.395 175.001C345.156 118.249 317.486 93.0267 263.084 87.6904Z" fill="white" stroke="#A2A2A2" stroke-linecap="round"/>
<path d="M263.084 87.3105C268.323 30.5586 295.993 5.33617 350.395 -0.0001297C345.156 56.7518 317.486 81.9743 263.084 87.3105Z" fill="white" stroke="#A2A2A2" stroke-linecap="round"/>
<path d="M262.311 87.3105C257.072 30.5586 229.402 5.33617 175 -0.0001297C180.239 56.7518 207.909 81.9743 262.311 87.3105Z" fill="white" stroke="#A2A2A2" stroke-linecap="round"/>
<path d="M612.311 87.6904C607.072 144.442 579.402 169.665 525 175.001C530.239 118.249 557.909 93.0267 612.311 87.6904Z" fill="white" stroke="#A2A2A2" stroke-linecap="round"/>
<path d="M613.084 87.6904C618.323 144.442 645.993 169.665 700.395 175.001C695.156 118.249 667.486 93.0267 613.084 87.6904Z" fill="white" stroke="#A2A2A2" stroke-linecap="round"/>
<path d="M613.084 87.3105C618.323 30.5586 645.993 5.33617 700.395 -0.0001297C695.156 56.7518 667.486 81.9743 613.084 87.3105Z" fill="white" stroke="#A2A2A2" stroke-linecap="round"/>
<path d="M612.311 87.3105C607.072 30.5586 579.402 5.33617 525 -0.0001297C530.239 56.7518 557.909 81.9743 612.311 87.3105Z" fill="white" stroke="#A2A2A2" stroke-linecap="round"/>
<path d="M87.3107 262.69C82.072 319.442 54.4018 344.665 0 350.001C5.23864 293.249 32.9088 268.027 87.3107 262.69Z" fill="white" stroke="#A2A2A2" stroke-linecap="round"/>
<path d="M88.084 262.69C93.3226 319.442 120.993 344.665 175.395 350.001C170.156 293.249 142.486 268.027 88.084 262.69Z" fill="white" stroke="#A2A2A2" stroke-linecap="round"/>
<path d="M88.0839 262.311C93.3225 205.559 120.993 180.336 175.395 175C170.156 231.752 142.486 256.974 88.0839 262.311Z" fill="white" stroke="#A2A2A2" stroke-linecap="round"/>
<path d="M87.3105 262.311C82.0719 205.559 54.4017 180.336 -0.000106812 175C5.23853 231.752 32.9087 256.974 87.3105 262.311Z" fill="white" stroke="#A2A2A2" stroke-linecap="round"/>
<path d="M437.311 262.69C432.072 319.442 404.402 344.665 350 350.001C355.239 293.249 382.909 268.027 437.311 262.69Z" fill="white" stroke="#A2A2A2" stroke-linecap="round"/>
<path d="M438.084 262.69C443.323 319.442 470.993 344.665 525.395 350.001C520.156 293.249 492.486 268.027 438.084 262.69Z" fill="white" stroke="#A2A2A2" stroke-linecap="round"/>
<path d="M438.084 262.311C443.323 205.559 470.993 180.336 525.395 175C520.156 231.752 492.486 256.974 438.084 262.311Z" fill="white" stroke="#A2A2A2" stroke-linecap="round"/>
<path d="M437.311 262.311C432.072 205.559 404.402 180.336 350 175C355.239 231.752 382.909 256.974 437.311 262.311Z" fill="white" stroke="#A2A2A2" stroke-linecap="round"/>
<path d="M262.311 262.69C257.072 319.442 229.402 344.665 175 350.001C180.239 293.249 207.909 268.027 262.311 262.69Z" fill="white" stroke="#A2A2A2" stroke-linecap="round"/>
<path d="M263.084 262.69C268.323 319.442 295.993 344.665 350.395 350.001C345.156 293.249 317.486 268.027 263.084 262.69Z" fill="white" stroke="#A2A2A2" stroke-linecap="round"/>
<path d="M263.084 262.311C268.323 205.559 295.993 180.336 350.395 175C345.156 231.752 317.486 256.974 263.084 262.311Z" fill="white" stroke="#A2A2A2" stroke-linecap="round"/>
<path d="M262.311 262.311C257.072 205.559 229.402 180.336 175 175C180.239 231.752 207.909 256.974 262.311 262.311Z" fill="white" stroke="#A2A2A2" stroke-linecap="round"/>
<path d="M612.311 262.69C607.072 319.442 579.402 344.665 525 350.001C530.239 293.249 557.909 268.027 612.311 262.69Z" fill="white" stroke="#A2A2A2" stroke-linecap="round"/>
<path d="M613.084 262.69C618.323 319.442 645.993 344.665 700.395 350.001C695.156 293.249 667.486 268.027 613.084 262.69Z" fill="white" stroke="#A2A2A2" stroke-linecap="round"/>
<path d="M613.084 262.311C618.323 205.559 645.993 180.336 700.395 175C695.156 231.752 667.486 256.974 613.084 262.311Z" fill="white" stroke="#A2A2A2" stroke-linecap="round"/>
<path d="M612.311 262.311C607.072 205.559 579.402 180.336 525 175C530.239 231.752 557.909 256.974 612.311 262.311Z" fill="white" stroke="#A2A2A2" stroke-linecap="round"/>
</g>
<defs>
<clipPath id="clip0_1713_3279">
<rect width="700" height="350" fill="white"/>
</clipPath>
</defs>
</svg>
