<svg width="247" height="324" viewBox="0 0 247 324" fill="none" xmlns="http://www.w3.org/2000/svg">
<path d="M98.7998 310.989L121.757 315.609C121.98 315.654 122.212 315.621 122.414 315.516L170.875 290.401C171.724 289.96 171.53 288.693 170.587 288.528L150.547 285.014C150.323 284.975 150.092 285.013 149.892 285.123L142.778 289.039M98.7998 310.989L127.717 296.399M98.7998 310.989V316.675C98.7998 317.147 99.1301 317.555 99.592 317.653L121.756 322.362C121.98 322.41 122.213 322.379 122.416 322.276L173.502 296.399" stroke="black" stroke-width="3"/>
<path d="M3.43475 123.46L240.435 4.95968C242.762 3.7961 245.5 5.48834 245.5 8.09017V188.486C245.5 189.811 244.751 191.023 243.565 191.616L141.505 242.646L122.829 251.984L6.56523 310.115C4.23808 311.279 1.5 309.587 1.5 306.985V126.59C1.5 125.265 2.249 124.053 3.43475 123.46Z" stroke="black" stroke-width="3"/>
<path d="M13.0758 125.698L232.003 16.3991C234.33 15.2373 237.066 16.9296 237.066 19.5305V185.644C237.066 186.97 236.316 188.183 235.129 188.775L140.742 235.898L123.433 244.539L16.2025 298.073C13.8755 299.235 11.1392 297.543 11.1392 294.942V128.829C11.1392 127.502 11.889 126.29 13.0758 125.698Z" stroke="black" stroke-width="3"/>
<path d="M127.717 301.597V250.645C127.717 249.888 128.145 249.195 128.823 248.856L140.486 243.025C141.816 242.36 143.381 243.327 143.381 244.813V295.766C143.381 296.523 142.953 297.216 142.275 297.555L130.612 303.386C129.282 304.051 127.717 303.084 127.717 301.597Z" stroke="black" stroke-width="3"/>
</svg>
