<svg width="187" height="129" viewBox="0 0 187 129" fill="none" xmlns="http://www.w3.org/2000/svg">
<path d="M11.0128 7.27889L2 84.4638L27.079 121.887C38.9227 128.502 101.924 128.904 108.978 121.887L132.134 84.4638M11.0128 7.27889C43.9289 -0.51778 108.978 1.04153 123.084 7.27889M11.0128 7.27889H15.7151M132.134 84.4638H155.217C189.701 82.9045 197.538 32.2276 161.095 24.4311H128.179M132.134 84.4638L128.641 31.4477M128.179 24.4311L123.084 7.27889M128.179 24.4311L128.641 31.4477M123.084 7.27889H119.95M15.7151 7.27889V75.8875L32.9569 110.582C48.6312 119.158 102.708 116.819 102.708 110.582L119.95 75.8875V7.27889M15.7151 7.27889C40.4022 13.126 115.639 11.5667 119.95 7.27889M131.569 75.8875H154.652C181.863 75.8875 183.431 31.4477 155.217 31.4477H128.641" stroke="black" stroke-width="3"/>
</svg>
