<svg width="576" height="597" viewBox="0 0 576 597" fill="none" xmlns="http://www.w3.org/2000/svg">
<path d="M78 95L309 182" stroke="black" stroke-width="4"/>
<path d="M146.5 184L371.5 257" stroke="black" stroke-width="4"/>
<path d="M219.5 274L435.5 334" stroke="black" stroke-width="4"/>
<path d="M298.5 371L504.5 413" stroke="black" stroke-width="4"/>
<path d="M255.623 110.122L14.7359 6.34819C10.9089 4.69954 7.42619 9.27042 10.0314 12.5226L375.472 468.716C376.13 469.539 377.087 470.068 378.134 470.189L565.56 491.851C569.148 492.266 571.405 488.089 569.091 485.316L257.112 111.234C256.71 110.751 256.199 110.371 255.623 110.122Z" stroke="black" stroke-width="4"/>
<path d="M252.631 114.622L29.82 17.6993C25.9922 16.0342 22.493 20.6093 25.1022 23.8676L376.94 463.221C377.596 464.041 378.548 464.569 379.591 464.693L553.517 485.316C557.11 485.742 559.377 481.559 557.059 478.781L254.107 115.727C253.708 115.249 253.203 114.871 252.631 114.622Z" stroke="black" stroke-width="4"/>
<path d="M78.5 39L436.5 476" stroke="black" stroke-width="4"/>
<path d="M139.5 65L486.5 482" stroke="black" stroke-width="4"/>
<path d="M198.5 90L531.5 489" stroke="black" stroke-width="4"/>
<path d="M253 331.256V325.738C253 321.921 257.837 320.273 260.168 323.296L312.032 390.557C314.06 393.187 312.185 397 308.865 397H299.281C298.148 397 297.067 396.519 296.308 395.676L289.692 388.324C288.933 387.481 287.852 387 286.719 387H271C268.791 387 267 385.209 267 383V347.744C267 346.632 266.537 345.57 265.722 344.813L254.278 334.187C253.463 333.43 253 332.368 253 331.256Z" fill="black" stroke="black" stroke-width="4"/>
<path d="M309.25 594.5H257.25C255.041 594.5 253.25 592.709 253.25 590.5V563.263C253.25 561.053 255.041 559.263 257.25 559.263H267.368V384.632C267.368 382.423 269.159 380.632 271.368 380.632L282.073 380.632C283.235 380.632 284.34 381.138 285.1 382.018L298.16 397.138C298.787 397.865 299.132 398.793 299.132 399.753V559.263H309.25C311.459 559.263 313.25 561.053 313.25 563.263V590.5C313.25 592.709 311.459 594.5 309.25 594.5Z" fill="black"/>
<path d="M267.368 559.263H257.25C255.041 559.263 253.25 561.053 253.25 563.263V590.5C253.25 592.709 255.041 594.5 257.25 594.5H309.25C311.459 594.5 313.25 592.709 313.25 590.5V563.263C313.25 561.053 311.459 559.263 309.25 559.263H299.132M267.368 559.263V384.632C267.368 382.423 269.159 380.632 271.368 380.632L282.073 380.632C283.235 380.632 284.34 381.138 285.1 382.018L298.16 397.138C298.787 397.865 299.132 398.793 299.132 399.753V559.263M267.368 559.263H299.132" stroke="black" stroke-width="4"/>
<path d="M196 595L369 595" stroke="black" stroke-width="4"/>
</svg>
