<svg width="222" height="209" viewBox="0 0 222 209" fill="none" xmlns="http://www.w3.org/2000/svg">
<g filter="url(#filter0_d_1916_1907)">
<path d="M83.7116 55.8878C83.7116 55.8878 70.7959 56.8671 68.4476 55.8878C66.0993 54.9086 56.3146 36.7591 56.3146 36.7591C53.1835 32.4647 42.2727 32.8551 39.8764 36.7591C28.1348 55.8878 29.7004 91.803 16.3933 113.665L7 119.52L29.3583 23.4859M83.7116 55.8878C122.459 75.7972 168.016 64.4759 179.933 50.8127M83.7116 55.8878C82.5929 57.6856 81.6493 59.23 80.2203 61.3532M187.429 61.3532C207.626 90.1883 213.281 106.014 216 139.82C199.953 197.597 146.333 206.576 100.15 194.084C65.2808 183.379 51.2266 154.589 51.2266 135.136C51.2266 103.8 67.3078 79.4819 77.4494 65.329M187.429 61.3532C190.56 95.7068 88.0169 108.199 77.4494 65.329M187.429 61.3532C187.429 61.3532 183.804 57.946 182.341 55.8878M179.933 50.8127V41.4437L166.294 30.5128M179.933 50.8127C179.933 50.8127 180.877 53.8297 182.341 55.8878M166.294 30.5128C166.294 30.5128 174.944 22.2178 176.47 13.7263C176.892 11.3771 177.762 9.76418 177.096 7.48014C174.024 -3.06011 111.109 0.0626353 94.279 30.5128M166.294 30.5128C125.409 43.1957 105.825 45.1003 97.7942 36.7591M166.294 30.5128C138.506 21.9243 125.199 16.0688 97.7942 36.7591M94.279 30.5128L61.0112 16.0688L32.0487 14.1168L29.3583 23.4859M94.279 30.5128C95.039 33.0037 96.1845 35.0872 97.7942 36.7591M77.4494 65.329C78.5738 63.76 79.4649 62.4757 80.2203 61.3532M97.7942 36.7591L100.15 45.3473L56.3146 25.4378L29.3583 23.4859M80.2203 61.3532C109.953 82.4349 164.954 80.2867 182.341 55.8878" stroke="black" stroke-width="3" shape-rendering="crispEdges"/>
</g>
<defs>
<filter id="filter0_d_1916_1907" x="0.716797" y="0.5" width="220.8" height="208" filterUnits="userSpaceOnUse" color-interpolation-filters="sRGB">
<feFlood flood-opacity="0" result="BackgroundImageFix"/>
<feColorMatrix in="SourceAlpha" type="matrix" values="0 0 0 0 0 0 0 0 0 0 0 0 0 0 0 0 0 0 127 0" result="hardAlpha"/>
<feOffset dy="4"/>
<feGaussianBlur stdDeviation="2"/>
<feComposite in2="hardAlpha" operator="out"/>
<feColorMatrix type="matrix" values="0 0 0 0 0 0 0 0 0 0 0 0 0 0 0 0 0 0 0.25 0"/>
<feBlend mode="normal" in2="BackgroundImageFix" result="effect1_dropShadow_1916_1907"/>
<feBlend mode="normal" in="SourceGraphic" in2="effect1_dropShadow_1916_1907" result="shape"/>
</filter>
</defs>
</svg>
